<svg xmlns="http://www.w3.org/2000/svg" width="24" height="24" fill="#333" viewBox="0 0 24 24">
  <path d="M12 0C5.372 0 0 5.373 0 12c0 5.303 3.438 9.8 8.205 11.387.6.11.82-.26.82-.577v-2.234c-3.338.726-4.033-1.416-4.033-1.416-.546-1.387-1.333-1.756-1.333-1.756-1.088-.744.084-.729.084-.729 1.205.084 1.838 1.24 1.838 1.24 1.07 1.836 2.809 1.305 3.495.997.107-.776.418-1.305.76-1.605-2.665-.305-5.466-1.334-5.466-5.931 0-1.312.467-2.383 1.235-3.222-.124-.305-.535-1.526.117-3.176 0 0 1.008-.322 3.301 1.23.957-.266 1.984-.399 3.003-.404 1.02.005 2.047.138 3.006.404 2.289-1.552 3.295-1.23 3.295-1.23.654 1.65.243 2.871.12 3.176.77.839 1.232 1.91 1.232 3.222 0 4.609-2.807 5.624-5.479 5.921.43.371.815 1.102.815 2.222v3.293c0 .32.218.694.825.576C20.565 21.796 24 17.298 24 12c0-6.627-5.373-12-12-12z"/>
</svg>
