<svg xmlns="http://www.w3.org/2000/svg" width="24" height="24" fill="#0077B5" viewBox="0 0 24 24">
  <path d="M20.447 20.452H17.23v-5.568c0-1.327-.027-3.037-1.852-3.037-1.853 0-2.136 1.445-2.136 2.938v5.667H9.015V9h3.39v1.561h.048c.472-.897 1.631-1.848 3.358-1.848 3.594 0 4.255 2.365 4.255 5.444v6.295zM5.337 7.433c-1.09 0-1.974-.885-1.974-1.975 0-1.09.884-1.975 1.974-1.975s1.975.885 1.975 1.975c0 1.09-.885 1.975-1.975 1.975zM6.814 20.452H3.86V9h2.954v11.452zM22.225 0H1.771C.791 0 0 .774 0 1.729v20.542C0 23.227.79 24 1.771 24h20.451C23.207 24 24 23.227 24 22.271V1.729C24 .774 23.207 0 22.225 0z"/>
</svg>
